<svg xmlns="http://www.w3.org/2000/svg" viewBox="0 0 260 250">
<circle cx="128" cy="122" r="18" fill="none" stroke="#d4a373" stroke-width="1.2" opacity="0.55"/><circle cx="128" cy="122" r="30" fill="none" stroke="#d4a373" stroke-width="1.2" opacity="0.55"/><circle cx="128" cy="122" r="42" fill="none" stroke="#d4a373" stroke-width="1.2" opacity="0.55"/><circle cx="128" cy="122" r="54" fill="none" stroke="#d4a373" stroke-width="1.2" opacity="0.55"/><path d="M 128,122 L 128.0,234.0 A 112 112 0 0 1 72.0,219.0 Z" fill="#fffbeb" fill-opacity="0.85" stroke="#1f2937" stroke-width="2.5" stroke-linejoin="round"/><circle cx="107.1" cy="199.9" r="13" fill="#ef4444"/><path d="M 128,122 L 72.0,219.0 A 112 112 0 0 1 31.0,178.0 Z" fill="#fffbeb" fill-opacity="0.85" stroke="#1f2937" stroke-width="2.5" stroke-linejoin="round"/><circle cx="71.0" cy="179.0" r="13" fill="#ef4444"/><path d="M 128,122 L 31.0,178.0 A 112 112 0 0 1 16.0,122.0 Z" fill="#fffbeb" fill-opacity="0.85" stroke="#1f2937" stroke-width="2.5" stroke-linejoin="round"/><circle cx="50.1" cy="142.9" r="13" fill="#ef4444"/><path d="M 128,122 L 16.0,122.0 A 112 112 0 0 1 31.0,66.0 Z" fill="#fffbeb" fill-opacity="0.85" stroke="#1f2937" stroke-width="2.5" stroke-linejoin="round"/><circle cx="50.1" cy="101.1" r="13" fill="#ef4444"/><path d="M 128,122 L 31.0,66.0 A 112 112 0 0 1 72.0,25.0 Z" fill="#fffbeb" fill-opacity="0.85" stroke="#1f2937" stroke-width="2.5" stroke-linejoin="round"/><circle cx="71.0" cy="65.0" r="13" fill="#ef4444"/><path d="M 128,122 L 72.0,25.0 A 112 112 0 0 1 128.0,10.0 Z" fill="#fffbeb" fill-opacity="0.85" stroke="#1f2937" stroke-width="2.5" stroke-linejoin="round"/><circle cx="107.1" cy="44.1" r="13" fill="#ef4444"/><path d="M 128,122 L 128.0,10.0 A 112 112 0 0 1 184.0,25.0 Z" fill="#fffbeb" fill-opacity="0.85" stroke="#1f2937" stroke-width="2.5" stroke-linejoin="round"/><circle cx="148.9" cy="44.1" r="13" fill="#ef4444"/><path d="M 128,122 L 184.0,25.0 A 112 112 0 0 1 225.0,66.0 Z" fill="#fffbeb" fill-opacity="0.85" stroke="#1f2937" stroke-width="2.5" stroke-linejoin="round"/><circle cx="185.0" cy="65.0" r="13" fill="#ef4444"/><path d="M 128,122 L 225.0,66.0 A 112 112 0 0 1 240.0,122.0 Z" fill="#fffbeb" fill-opacity="0.85" stroke="#1f2937" stroke-width="2.5" stroke-linejoin="round"/><circle cx="205.9" cy="101.1" r="13" fill="#ef4444"/><text x="206" y="214" font-family="Arial" font-size="44" font-weight="bold" fill="#dc2626" text-anchor="middle" >?</text>
</svg>
