<svg xmlns="http://www.w3.org/2000/svg" viewBox="0 0 400 234">
<rect x="20" y="8" width="180" height="104" rx="4" fill="#9ca3af"/><rect x="50" y="34" width="120" height="52" fill="#fff"/><circle cx="80" cy="34" r="9" fill="#fff"/><circle cx="80" cy="86" r="9" fill="#fff"/><circle cx="110" cy="34" r="9" fill="#fff"/><circle cx="110" cy="86" r="9" fill="#fff"/><circle cx="140" cy="34" r="9" fill="#fff"/><circle cx="140" cy="86" r="9" fill="#fff"/><circle cx="50" cy="60" r="9" fill="#9ca3af"/><circle cx="170" cy="60" r="9" fill="#9ca3af"/><g transform="translate(50,170) rotate(0)" ><g fill="#38bdf8"><rect x="-20" y="-20" width="40" height="40"/><circle cx="0" cy="-20" r="7.5"/><circle cx="0" cy="20" r="7.5"/><circle cx="-20" cy="0" r="7.5"/><circle cx="20" cy="0" r="7.5"/></g><g fill="#fff"></g></g><g transform="translate(150,170) rotate(0)" ><g fill="#f472b6"><rect x="-20" y="-20" width="40" height="40"/><circle cx="0" cy="-20" r="7.5"/><circle cx="0" cy="20" r="7.5"/></g><g fill="#fff"><circle cx="-20" cy="0" r="7.5"/><circle cx="20" cy="0" r="7.5"/></g></g><g transform="translate(250,170) rotate(35)" ><g fill="#4ade80"><rect x="-20" y="-20" width="40" height="40"/><circle cx="0" cy="-20" r="7.5"/><circle cx="0" cy="20" r="7.5"/></g><g fill="#fff"><circle cx="-20" cy="0" r="7.5"/><circle cx="20" cy="0" r="7.5"/></g></g><g transform="translate(350,170) rotate(0)" ><g fill="#fb923c"><rect x="-20" y="-20" width="40" height="40"/><circle cx="0" cy="-20" r="7.5"/><circle cx="-20" cy="0" r="7.5"/><circle cx="20" cy="0" r="7.5"/></g><g fill="#fff"><circle cx="0" cy="20" r="7.5"/></g></g><text x="50" y="226" font-family="Arial" font-size="16" font-weight="bold" fill="#334155" text-anchor="middle" >(A)</text><text x="150" y="226" font-family="Arial" font-size="16" font-weight="bold" fill="#334155" text-anchor="middle" >(B)</text><text x="250" y="226" font-family="Arial" font-size="16" font-weight="bold" fill="#334155" text-anchor="middle" >(C)</text><text x="350" y="226" font-family="Arial" font-size="16" font-weight="bold" fill="#334155" text-anchor="middle" >(D)</text>
</svg>
