<svg xmlns="http://www.w3.org/2000/svg" viewBox="0 0 360 222" width="360" height="222" font-family="system-ui,'Segoe UI','Segoe UI Emoji','Noto Color Emoji',Arial,sans-serif">
<rect width="360" height="222" fill="#fff"/>
<circle cx="54" cy="50" r="23.8" fill="#c7e9f7" stroke="#2b2b2b" stroke-width="2"/><path d="M 40.9 41.7 A 16.7 16.7 0 0 1 49.2 35.2" fill="none" stroke="#fff" stroke-width="3" stroke-linecap="round" stroke-linejoin="round"/><ellipse cx="54" cy="50" rx="23.8" ry="8.3" fill="none" stroke="#7aa8bf" stroke-width="1.2"/><text x="54" y="106" font-size="13" text-anchor="middle" fill="#666" font-weight="700">1</text><rect x="119.8" y="28.3" width="36.4" height="43.4" fill="#ffe4b3" stroke="none" stroke-width="0" /><line x1="119.8" y1="28.3" x2="119.8" y2="71.7" stroke="#2b2b2b" stroke-width="2" stroke-linecap="round" /><line x1="156.2" y1="28.3" x2="156.2" y2="71.7" stroke="#2b2b2b" stroke-width="2" stroke-linecap="round" /><path d="M 119.8 71.7 A 18.2 6.9 0 0 0 156.2 71.7" fill="#ffe4b3" stroke="#2b2b2b" stroke-width="2" stroke-linecap="round" stroke-linejoin="round"/><ellipse cx="138" cy="28.3" rx="18.2" ry="6.9" fill="#fff3d6" stroke="#2b2b2b" stroke-width="2"/><text x="138" y="106" font-size="13" text-anchor="middle" fill="#666" font-weight="700">2</text><circle cx="222" cy="50" r="23.8" fill="#c7e9f7" stroke="#2b2b2b" stroke-width="2"/><path d="M 208.9 41.7 A 16.7 16.7 0 0 1 217.2 35.2" fill="none" stroke="#fff" stroke-width="3" stroke-linecap="round" stroke-linejoin="round"/><ellipse cx="222" cy="50" rx="23.8" ry="8.3" fill="none" stroke="#7aa8bf" stroke-width="1.2"/><text x="222" y="106" font-size="13" text-anchor="middle" fill="#666" font-weight="700">3</text><circle cx="306" cy="50" r="23.8" fill="#c7e9f7" stroke="#2b2b2b" stroke-width="2"/><path d="M 292.9 41.7 A 16.7 16.7 0 0 1 301.2 35.2" fill="none" stroke="#fff" stroke-width="3" stroke-linecap="round" stroke-linejoin="round"/><ellipse cx="306" cy="50" rx="23.8" ry="8.3" fill="none" stroke="#7aa8bf" stroke-width="1.2"/><text x="306" y="106" font-size="13" text-anchor="middle" fill="#666" font-weight="700">4</text><rect x="35.8" y="130.3" width="36.4" height="43.4" fill="#ffe4b3" stroke="none" stroke-width="0" /><line x1="35.8" y1="130.3" x2="35.8" y2="173.7" stroke="#2b2b2b" stroke-width="2" stroke-linecap="round" /><line x1="72.2" y1="130.3" x2="72.2" y2="173.7" stroke="#2b2b2b" stroke-width="2" stroke-linecap="round" /><path d="M 35.8 173.7 A 18.2 6.9 0 0 0 72.2 173.7" fill="#ffe4b3" stroke="#2b2b2b" stroke-width="2" stroke-linecap="round" stroke-linejoin="round"/><ellipse cx="54" cy="130.3" rx="18.2" ry="6.9" fill="#fff3d6" stroke="#2b2b2b" stroke-width="2"/><text x="54" y="208" font-size="13" text-anchor="middle" fill="#666" font-weight="700">5</text><polygon points="117,139.4 145,139.4 145,167.4 117,167.4" fill="#d7f5e3" stroke="#2b2b2b" stroke-width="2" stroke-linejoin="round"/><polygon points="117,139.4 131,125.4 159,125.4 145,139.4" fill="#ecfbf1" stroke="#2b2b2b" stroke-width="2" stroke-linejoin="round"/><polygon points="145,139.4 159,125.4 159,153.4 145,167.4" fill="#a9dcc0" stroke="#2b2b2b" stroke-width="2" stroke-linejoin="round"/><text x="138" y="208" font-size="13" text-anchor="middle" fill="#666" font-weight="700">6</text>
</svg>
