<svg xmlns="http://www.w3.org/2000/svg" viewBox="0 0 340 220" width="340" height="220" font-family="system-ui,'Segoe UI','Segoe UI Emoji','Noto Color Emoji',Arial,sans-serif">
<rect width="340" height="220" fill="#fff"/>
<path d="M 110 110 L 110 18 A 92 92 0 0 1 138.4 22.5 Z" fill="#5b8def" stroke="#fff" stroke-width="2" stroke-linecap="round" stroke-linejoin="round"/><text x="121.8" y="40.5" font-size="11" text-anchor="middle" fill="#fff" font-weight="700">5%</text><path d="M 110 110 L 138.4 22.5 A 92 92 0 0 1 138.4 197.5 Z" fill="#39a86b" stroke="#fff" stroke-width="2" stroke-linecap="round" stroke-linejoin="round"/><text x="165.2" y="115" font-size="14" text-anchor="middle" fill="#fff" font-weight="700">40%</text><path d="M 110 110 L 138.4 197.5 A 92 92 0 1 1 110 18 Z" fill="#e8a33d" stroke="#fff" stroke-width="2" stroke-linecap="round" stroke-linejoin="round"/><text x="55.5" y="123.6" font-size="14" text-anchor="middle" fill="#fff" font-weight="700">55%</text><rect x="226" y="28" width="18" height="18" fill="#5b8def" stroke="none" stroke-width="0" /><text x="252" y="42" font-size="13" text-anchor="start" fill="#2b2b2b" font-weight="700">Cờ vua</text><rect x="226" y="58" width="18" height="18" fill="#39a86b" stroke="none" stroke-width="0" /><text x="252" y="72" font-size="13" text-anchor="start" fill="#2b2b2b" font-weight="700">Bơi</text><rect x="226" y="88" width="18" height="18" fill="#e8a33d" stroke="none" stroke-width="0" /><text x="252" y="102" font-size="13" text-anchor="start" fill="#2b2b2b" font-weight="700">Bóng đá</text><text x="170" y="214" font-size="12" text-anchor="middle" fill="#555" font-weight="500">Môn thể thao yêu thích của học sinh khối 5</text>
</svg>
